<svg width="234" height="43" viewBox="0 0 234 43" fill="none" xmlns="http://www.w3.org/2000/svg">
<path d="M0.114375 42V36.42H3.95438L18.7144 1.02H28.9144L43.7344 36.42H47.5744V42H25.6144V36.42H31.4944L19.6744 7.32H23.2744L11.2144 36.42H17.0344V42H0.114375ZM12.0544 30.36V24.54H31.0744V30.36H12.0544ZM73.8577 42.78C70.8577 42.78 68.0777 42.3 65.5177 41.34C62.9577 40.34 60.8177 38.8 59.0977 36.72C57.4177 34.6 56.3777 31.82 55.9777 28.38H58.4977C59.3377 30.18 60.4377 31.7 61.7977 32.94C63.1977 34.18 64.7977 35.12 66.5977 35.76C68.3977 36.4 70.3377 36.72 72.4177 36.72C74.3777 36.72 75.8977 36.34 76.9777 35.58C78.0977 34.82 78.6577 33.66 78.6577 32.1C78.6577 31.06 78.3577 30.24 77.7577 29.64C77.1577 29 76.3577 28.5 75.3577 28.14C74.3977 27.78 73.3377 27.52 72.1777 27.36L68.3377 26.82C65.1377 26.34 62.2377 25.56 59.6377 24.48C57.0777 23.36 55.0377 21.84 53.5177 19.92C52.0377 18 51.2977 15.6 51.2977 12.72C51.2977 9.84 51.9577 7.5 53.2777 5.7C54.6377 3.86 56.4377 2.5 58.6777 1.62C60.9577 0.739997 63.5177 0.299997 66.3577 0.299997C69.1577 0.299997 71.7177 0.779998 74.0377 1.74C76.3977 2.66 78.3777 4.14 79.9777 6.18C81.5777 8.22 82.6177 10.88 83.0977 14.16H80.6377C79.5577 11.6 77.8577 9.66 75.5377 8.34C73.2577 6.98 70.7177 6.3 67.9177 6.3C66.0377 6.3 64.5377 6.66 63.4177 7.38C62.2977 8.1 61.7377 9.22 61.7377 10.74C61.7377 11.74 61.9977 12.56 62.5177 13.2C63.0777 13.84 63.8177 14.34 64.7377 14.7C65.6577 15.06 66.6577 15.34 67.7377 15.54L71.5777 16.08C74.9377 16.56 77.9377 17.3 80.5777 18.3C83.2577 19.3 85.3577 20.7 86.8777 22.5C88.3977 24.3 89.1577 26.68 89.1577 29.64C89.1577 32.56 88.5177 35 87.2377 36.96C85.9577 38.88 84.1777 40.34 81.8977 41.34C79.6177 42.3 76.9377 42.78 73.8577 42.78ZM52.1377 42V28.38H55.9777L58.4377 33.24V42H52.1377ZM83.0977 14.16L80.6977 9.48V1.08H86.9977V14.16H83.0977ZM116.573 42.78C113.573 42.78 110.793 42.3 108.233 41.34C105.673 40.34 103.533 38.8 101.813 36.72C100.133 34.6 99.0925 31.82 98.6925 28.38H101.213C102.053 30.18 103.153 31.7 104.513 32.94C105.913 34.18 107.513 35.12 109.313 35.76C111.113 36.4 113.053 36.72 115.133 36.72C117.093 36.72 118.613 36.34 119.693 35.58C120.813 34.82 121.373 33.66 121.373 32.1C121.373 31.06 121.073 30.24 120.473 29.64C119.873 29 119.073 28.5 118.073 28.14C117.113 27.78 116.053 27.52 114.893 27.36L111.053 26.82C107.853 26.34 104.953 25.56 102.353 24.48C99.7925 23.36 97.7525 21.84 96.2325 19.92C94.7525 18 94.0125 15.6 94.0125 12.72C94.0125 9.84 94.6725 7.5 95.9925 5.7C97.3525 3.86 99.1525 2.5 101.393 1.62C103.673 0.739997 106.233 0.299997 109.073 0.299997C111.873 0.299997 114.433 0.779998 116.753 1.74C119.113 2.66 121.093 4.14 122.693 6.18C124.293 8.22 125.333 10.88 125.813 14.16H123.353C122.273 11.6 120.573 9.66 118.253 8.34C115.973 6.98 113.433 6.3 110.633 6.3C108.753 6.3 107.253 6.66 106.133 7.38C105.013 8.1 104.453 9.22 104.453 10.74C104.453 11.74 104.713 12.56 105.233 13.2C105.793 13.84 106.533 14.34 107.453 14.7C108.373 15.06 109.373 15.34 110.453 15.54L114.293 16.08C117.653 16.56 120.653 17.3 123.293 18.3C125.973 19.3 128.073 20.7 129.593 22.5C131.113 24.3 131.873 26.68 131.873 29.64C131.873 32.56 131.233 35 129.953 36.96C128.673 38.88 126.893 40.34 124.613 41.34C122.333 42.3 119.653 42.78 116.573 42.78ZM94.8525 42V28.38H98.6925L101.153 33.24V42H94.8525ZM125.813 14.16L123.413 9.48V1.08H129.713V14.16H125.813ZM136.063 42V36.42H140.623V6.54H136.123V0.959999H152.023V36.42H156.163V42H136.063ZM169.303 42.54C166.823 42.54 164.803 42.1 163.243 41.22C161.723 40.34 160.563 39.12 159.763 37.56C158.963 35.96 158.423 34.08 158.143 31.92L157.843 29.34C157.603 27.38 157.123 26.04 156.403 25.32C155.723 24.6 154.563 24.24 152.923 24.24H152.023V22.68H159.823C163.183 22.64 165.583 23.4 167.023 24.96C168.463 26.52 169.183 28.9 169.183 32.1V33.12C169.183 33.92 169.343 34.52 169.663 34.92C169.983 35.32 170.463 35.52 171.103 35.52C171.783 35.52 172.263 35.32 172.543 34.92C172.863 34.52 173.023 33.92 173.023 33.12V24.84H179.443V32.28C179.443 35.4 178.643 37.9 177.043 39.78C175.483 41.62 172.903 42.54 169.303 42.54ZM152.023 24.24V18.42H159.883C162.003 18.42 163.663 17.94 164.863 16.98C166.103 16.02 166.723 14.56 166.723 12.6C166.723 10.6 166.103 9.14 164.863 8.22C163.663 7.26 162.003 6.78 159.883 6.78H152.023V0.959999H163.603C168.003 0.959999 171.543 1.86 174.223 3.66C176.903 5.46 178.243 8.2 178.243 11.88C178.243 15.52 176.923 18.26 174.283 20.1C171.643 21.9 168.143 22.8 163.783 22.8H159.043L157.483 24.24H152.023ZM200.393 40.08C200.393 36.72 200.893 33.8 201.893 31.32C202.893 28.8 204.333 26.64 206.213 24.84C208.133 23.04 210.433 21.52 213.113 20.28L216.293 18.78C217.213 18.34 218.053 17.88 218.813 17.4C219.613 16.92 220.313 16.4 220.913 15.84C221.513 15.28 221.973 14.64 222.293 13.92C222.653 13.2 222.833 12.4 222.833 11.52L233.753 12.96C233.753 15.12 233.353 17 232.553 18.6C231.793 20.16 230.733 21.5 229.372 22.62C228.013 23.74 226.433 24.7 224.633 25.5C222.873 26.3 220.953 26.98 218.873 27.54L215.873 28.38C214.193 28.82 212.753 29.3 211.553 29.82C210.353 30.3 209.353 30.82 208.553 31.38C207.793 31.94 207.153 32.54 206.633 33.18L200.393 42V40.08ZM200.393 42V40.08L206.633 33.18H233.513V42H200.393ZM222.653 33.18C224.573 33.18 225.873 32.8 226.553 32.04C227.233 31.24 227.573 29.8 227.573 27.72V27.36H233.513V33.18H222.653ZM207.653 17.88C206.493 17.88 205.413 17.62 204.413 17.1C203.453 16.58 202.673 15.84 202.073 14.88C201.473 13.88 201.173 12.68 201.173 11.28C201.173 9.16 201.873 7.28 203.273 5.64C204.713 4 206.673 2.74 209.153 1.86C211.633 0.939998 214.433 0.479998 217.553 0.479998C220.513 0.479998 223.213 0.919998 225.653 1.8C228.133 2.68 230.093 4.04 231.533 5.88C233.013 7.72 233.753 10.08 233.753 12.96L222.833 11.52C222.833 10.4 222.533 9.44 221.933 8.64C221.333 7.84 220.493 7.24 219.413 6.84C218.333 6.4 217.053 6.18 215.573 6.18C214.053 6.18 212.713 6.36 211.553 6.72C210.393 7.08 209.433 7.56 208.673 8.16C207.913 8.76 207.353 9.46 206.993 10.26L206.753 8.22C208.833 8.22 210.433 8.64 211.553 9.48C212.713 10.28 213.293 11.44 213.293 12.96C213.293 14.36 212.793 15.54 211.793 16.5C210.793 17.42 209.413 17.88 207.653 17.88Z" fill="#1EC6B1"/>
</svg>
