<svg width="405" height="119" viewBox="0 0 405 119" fill="none" xmlns="http://www.w3.org/2000/svg">
<path d="M82.3991 41.84C79.5591 41.84 77.0591 41.36 74.8991 40.4C72.7791 39.4 71.1191 37.98 69.9191 36.14C68.7591 34.26 68.1791 31.94 68.1791 29.18V24.74H74.4791V28.82C74.4791 30.42 74.8991 31.78 75.7391 32.9C76.5791 33.98 77.9391 34.52 79.8191 34.52C81.7391 34.52 83.0991 33.98 83.8991 32.9C84.6991 31.78 85.0991 30.42 85.0991 28.82V5.66H78.4391V0.0799975H100.999V5.66H96.4991V28.82C96.4991 33.06 95.2591 36.3 92.7791 38.54C90.3391 40.74 86.8791 41.84 82.3991 41.84ZM99.8155 41V35.42H103.656L118.416 0.0199983H128.616L143.436 35.42H147.276V41H125.316V35.42H131.196L119.376 6.32H122.976L110.916 35.42H116.736V41H99.8155ZM111.756 29.36V23.54H130.776V29.36H111.756ZM150.452 41V35.42H155.012V5.66H150.512V0.0799975H166.412V35.42H174.572V41H150.452ZM166.412 24.32V18.5H172.772C174.972 18.5 176.712 18 177.992 17C179.272 15.96 179.912 14.36 179.912 12.2C179.912 10.08 179.272 8.5 177.992 7.46C176.712 6.42 174.972 5.9 172.772 5.9H166.412V0.0799975H176.492C181.012 0.0799975 184.632 1.1 187.352 3.14C190.072 5.14 191.432 8.16 191.432 12.2C191.432 16.24 190.072 19.28 187.352 21.32C184.632 23.32 181.012 24.32 176.492 24.32H166.412ZM210.886 41V35.06H215.266C217.586 35.06 219.626 34.48 221.386 33.32C223.186 32.12 224.586 30.44 225.586 28.28C226.626 26.08 227.146 23.5 227.146 20.54C227.146 17.54 226.626 14.94 225.586 12.74C224.586 10.54 223.186 8.86 221.386 7.7C219.626 6.5 217.586 5.9 215.266 5.9H210.886V0.0799975H216.406C221.006 0.0799975 225.026 0.879998 228.466 2.48C231.906 4.08 234.586 6.4 236.506 9.44C238.426 12.48 239.386 16.18 239.386 20.54C239.386 24.9 238.426 28.6 236.506 31.64C234.586 34.68 231.906 37 228.466 38.6C225.026 40.2 221.006 41 216.406 41H210.886ZM194.866 41V35.42H199.426V5.66H194.926V0.0799975H210.886V41H194.866ZM276.269 41.72C272.789 41.72 269.669 41.08 266.909 39.8C264.149 38.52 261.989 36.66 260.429 34.22C258.869 31.74 258.089 28.76 258.089 25.28C258.089 21.76 258.869 18.78 260.429 16.34C261.989 13.9 264.149 12.04 266.909 10.76C269.669 9.44 272.789 8.78 276.269 8.78C279.829 8.78 282.969 9.44 285.689 10.76C288.409 12.04 290.549 13.9 292.109 16.34C293.669 18.78 294.449 21.76 294.449 25.28C294.449 28.76 293.669 31.74 292.109 34.22C290.549 36.66 288.409 38.52 285.689 39.8C282.969 41.08 279.829 41.72 276.269 41.72ZM276.269 36.08C277.589 36.08 278.689 35.66 279.569 34.82C280.489 33.94 281.169 32.66 281.609 30.98C282.089 29.3 282.329 27.26 282.329 24.86C282.329 22.66 282.089 20.78 281.609 19.22C281.169 17.66 280.489 16.48 279.569 15.68C278.689 14.88 277.589 14.48 276.269 14.48C275.029 14.48 273.949 14.9 273.029 15.74C272.109 16.58 271.409 17.8 270.929 19.4C270.449 21 270.209 22.96 270.209 25.28C270.209 27.6 270.449 29.56 270.929 31.16C271.409 32.76 272.109 33.98 273.029 34.82C273.949 35.66 275.029 36.08 276.269 36.08ZM311.909 41.66C309.789 41.66 307.929 41.28 306.329 40.52C304.769 39.76 303.529 38.58 302.609 36.98C301.689 35.38 301.229 33.32 301.229 30.8V15.02H298.049V9.5H312.029V30.62C312.029 31.94 312.409 32.94 313.169 33.62C313.929 34.26 314.929 34.58 316.169 34.58C317.049 34.58 317.849 34.42 318.569 34.1C319.329 33.78 319.929 33.24 320.369 32.48C320.809 31.72 321.029 30.72 321.029 29.48L322.769 29.42C322.769 31.9 322.469 34.06 321.869 35.9C321.269 37.74 320.169 39.16 318.569 40.16C317.009 41.16 314.789 41.66 311.909 41.66ZM322.349 41V30.98L321.029 31.22V15.02H317.009V9.5H331.949V35.54H335.789V41H322.349ZM16.6923 118.78C13.4523 118.78 10.5723 118.16 8.05234 116.92C5.57234 115.64 3.61234 113.78 2.17234 111.34C0.732344 108.86 0.0123438 105.82 0.0123438 102.22C0.0123438 98.66 0.732344 95.68 2.17234 93.28C3.65234 90.84 5.67234 89 8.23234 87.76C10.8323 86.52 13.8123 85.9 17.1723 85.9L18.8523 90.94C17.1323 90.94 15.6723 91.36 14.4723 92.2C13.2723 93 12.3523 94.14 11.7123 95.62C11.1123 97.06 10.8123 98.74 10.8123 100.66C10.8123 102.58 11.1323 104.28 11.7723 105.76C12.4123 107.24 13.3523 108.4 14.5923 109.24C15.8323 110.08 17.3323 110.5 19.0923 110.5C20.0523 110.5 20.9123 110.36 21.6723 110.08C22.4323 109.8 23.0923 109.42 23.6523 108.94C24.2123 108.42 24.6723 107.84 25.0323 107.2C25.3923 106.52 25.6523 105.82 25.8123 105.1H31.5123C31.4723 107.06 31.1123 108.88 30.4323 110.56C29.7523 112.24 28.7723 113.7 27.4923 114.94C26.2523 116.14 24.7123 117.08 22.8723 117.76C21.0723 118.44 19.0123 118.78 16.6923 118.78ZM24.9123 100C23.1523 100 21.7723 99.58 20.7723 98.74C19.7723 97.9 19.2723 96.8 19.2723 95.44C19.2723 94 19.8323 92.92 20.9523 92.2C22.0723 91.44 23.6123 91.06 25.5723 91.06L25.6923 94.6C25.1323 93.8 24.5323 93.14 23.8923 92.62C23.2523 92.06 22.5323 91.64 21.7323 91.36C20.9323 91.08 19.9723 90.94 18.8523 90.94L17.1723 85.9C19.9323 85.9 22.3523 86.3 24.4323 87.1C26.5523 87.86 28.1923 88.9 29.3523 90.22C30.5123 91.5 31.0923 92.98 31.0923 94.66C31.0923 96.3 30.5123 97.6 29.3523 98.56C28.2323 99.52 26.7523 100 24.9123 100ZM53.9931 118.72C50.5131 118.72 47.3931 118.08 44.6331 116.8C41.8731 115.52 39.7131 113.66 38.1531 111.22C36.5931 108.74 35.8131 105.76 35.8131 102.28C35.8131 98.76 36.5931 95.78 38.1531 93.34C39.7131 90.9 41.8731 89.04 44.6331 87.76C47.3931 86.44 50.5131 85.78 53.9931 85.78C57.5531 85.78 60.6931 86.44 63.4131 87.76C66.1331 89.04 68.2731 90.9 69.8331 93.34C71.3931 95.78 72.1731 98.76 72.1731 102.28C72.1731 105.76 71.3931 108.74 69.8331 111.22C68.2731 113.66 66.1331 115.52 63.4131 116.8C60.6931 118.08 57.5531 118.72 53.9931 118.72ZM53.9931 113.08C55.3131 113.08 56.4131 112.66 57.2931 111.82C58.2131 110.94 58.8931 109.66 59.3331 107.98C59.8131 106.3 60.0531 104.26 60.0531 101.86C60.0531 99.66 59.8131 97.78 59.3331 96.22C58.8931 94.66 58.2131 93.48 57.2931 92.68C56.4131 91.88 55.3131 91.48 53.9931 91.48C52.7531 91.48 51.6731 91.9 50.7531 92.74C49.8331 93.58 49.1331 94.8 48.6531 96.4C48.1731 98 47.9331 99.96 47.9331 102.28C47.9331 104.6 48.1731 106.56 48.6531 108.16C49.1331 109.76 49.8331 110.98 50.7531 111.82C51.6731 112.66 52.7531 113.08 53.9931 113.08ZM97.4898 118V112.54H100.13V97.06C100.13 95.74 99.7498 94.76 98.9898 94.12C98.2698 93.44 97.2698 93.1 95.9898 93.1C95.1498 93.1 94.3698 93.26 93.6498 93.58C92.9298 93.9 92.3498 94.44 91.9098 95.2C91.4698 95.92 91.2498 96.92 91.2498 98.2L89.5098 98.26C89.5098 95.78 89.8098 93.62 90.4098 91.78C91.0498 89.94 92.1498 88.52 93.7098 87.52C95.2698 86.52 97.4898 86.02 100.37 86.02C103.45 86.02 105.97 86.88 107.93 88.6C109.93 90.32 110.93 93.04 110.93 96.76V112.54H114.17V118H97.4898ZM75.8898 118V112.54H80.3298V92.02H76.3098V86.5H89.9298V96.88L91.2498 96.64V112.54H93.8898V118H75.8898ZM128.575 118L117.595 92.02H114.955V86.5H133.795V92.02H129.175L136.195 110.62L133.615 110.56L141.235 92.02H136.735V86.5H150.715V92.02H148.075L137.095 118H128.575ZM170.595 118.72C167.115 118.72 163.995 118.08 161.235 116.8C158.475 115.52 156.315 113.66 154.755 111.22C153.195 108.74 152.415 105.76 152.415 102.28C152.415 98.76 153.195 95.78 154.755 93.34C156.315 90.9 158.475 89.04 161.235 87.76C163.995 86.44 167.115 85.78 170.595 85.78C174.155 85.78 177.295 86.44 180.015 87.76C182.735 89.04 184.875 90.9 186.435 93.34C187.995 95.78 188.775 98.76 188.775 102.28C188.775 105.76 187.995 108.74 186.435 111.22C184.875 113.66 182.735 115.52 180.015 116.8C177.295 118.08 174.155 118.72 170.595 118.72ZM170.595 113.08C171.915 113.08 173.015 112.66 173.895 111.82C174.815 110.94 175.495 109.66 175.935 107.98C176.415 106.3 176.655 104.26 176.655 101.86C176.655 99.66 176.415 97.78 175.935 96.22C175.495 94.66 174.815 93.48 173.895 92.68C173.015 91.88 171.915 91.48 170.595 91.48C169.355 91.48 168.275 91.9 167.355 92.74C166.435 93.58 165.735 94.8 165.255 96.4C164.775 98 164.535 99.96 164.535 102.28C164.535 104.6 164.775 106.56 165.255 108.16C165.735 109.76 166.435 110.98 167.355 111.82C168.275 112.66 169.355 113.08 170.595 113.08ZM209.642 118.78C206.402 118.78 203.522 118.16 201.002 116.92C198.522 115.64 196.562 113.78 195.122 111.34C193.682 108.86 192.962 105.82 192.962 102.22C192.962 98.66 193.682 95.68 195.122 93.28C196.602 90.84 198.622 89 201.182 87.76C203.782 86.52 206.762 85.9 210.122 85.9L211.802 90.94C210.082 90.94 208.622 91.36 207.422 92.2C206.222 93 205.302 94.14 204.662 95.62C204.062 97.06 203.762 98.74 203.762 100.66C203.762 102.58 204.082 104.28 204.722 105.76C205.362 107.24 206.302 108.4 207.542 109.24C208.782 110.08 210.282 110.5 212.042 110.5C213.002 110.5 213.862 110.36 214.622 110.08C215.382 109.8 216.042 109.42 216.602 108.94C217.162 108.42 217.622 107.84 217.982 107.2C218.342 106.52 218.602 105.82 218.762 105.1H224.462C224.422 107.06 224.062 108.88 223.382 110.56C222.702 112.24 221.722 113.7 220.442 114.94C219.202 116.14 217.662 117.08 215.822 117.76C214.022 118.44 211.962 118.78 209.642 118.78ZM217.862 100C216.102 100 214.722 99.58 213.722 98.74C212.722 97.9 212.222 96.8 212.222 95.44C212.222 94 212.782 92.92 213.902 92.2C215.022 91.44 216.562 91.06 218.522 91.06L218.642 94.6C218.082 93.8 217.482 93.14 216.842 92.62C216.202 92.06 215.482 91.64 214.682 91.36C213.882 91.08 212.922 90.94 211.802 90.94L210.122 85.9C212.882 85.9 215.302 86.3 217.382 87.1C219.502 87.86 221.142 88.9 222.302 90.22C223.462 91.5 224.042 92.98 224.042 94.66C224.042 96.3 223.462 97.6 222.302 98.56C221.182 99.52 219.702 100 217.862 100ZM237.411 98.38C235.851 98.38 234.471 97.98 233.271 97.18C232.071 96.34 231.471 95.06 231.471 93.34C231.471 91.7 232.131 90.34 233.451 89.26C234.811 88.14 236.591 87.3 238.791 86.74C240.991 86.18 243.331 85.9 245.811 85.9C249.931 85.9 253.071 86.74 255.231 88.42C257.431 90.1 258.511 92.62 258.471 95.98L248.391 94.78C248.391 93.34 247.911 92.3 246.951 91.66C246.031 90.98 244.831 90.64 243.351 90.64C242.311 90.64 241.331 90.78 240.411 91.06C239.531 91.3 238.751 91.7 238.071 92.26C237.431 92.78 236.991 93.5 236.751 94.42L236.931 90.1C238.691 90.14 240.091 90.48 241.131 91.12C242.171 91.76 242.671 92.76 242.631 94.12C242.591 95.4 242.111 96.44 241.191 97.24C240.311 98 239.051 98.38 237.411 98.38ZM259.251 118.78C255.971 118.78 253.511 117.92 251.871 116.2C250.271 114.44 249.471 111.98 249.471 108.82V107.86H248.271V100.84H247.971L248.391 97.66V94.78L258.471 95.98V109.66C258.471 110.34 258.651 110.9 259.011 111.34C259.371 111.78 259.871 112 260.511 112C261.191 112 261.691 111.78 262.011 111.34C262.371 110.9 262.551 110.34 262.551 109.66V100H268.851V108.88C268.851 111.92 268.071 114.34 266.511 116.14C264.951 117.9 262.531 118.78 259.251 118.78ZM239.091 118.66C235.931 118.66 233.391 117.9 231.471 116.38C229.591 114.82 228.651 112.76 228.651 110.2C228.651 108.36 229.051 106.82 229.851 105.58C230.651 104.34 231.771 103.32 233.211 102.52C234.651 101.72 236.291 101.08 238.131 100.6L243.711 99.16C244.751 98.88 245.611 98.56 246.291 98.2C247.011 97.8 247.531 97.34 247.851 96.82C248.211 96.26 248.391 95.58 248.391 94.78L248.511 100.84H248.271C247.991 101.44 247.571 101.94 247.011 102.34C246.491 102.7 245.811 103.04 244.971 103.36L243.831 103.84C242.991 104.16 242.271 104.5 241.671 104.86C241.071 105.18 240.611 105.58 240.291 106.06C239.971 106.54 239.811 107.14 239.811 107.86C239.811 108.9 240.151 109.7 240.831 110.26C241.511 110.82 242.411 111.1 243.531 111.1C244.331 111.1 245.091 110.94 245.811 110.62C246.531 110.26 247.111 109.68 247.551 108.88C248.031 108.08 248.271 107 248.271 105.64L250.311 106C250.311 109 249.811 111.44 248.811 113.32C247.851 115.2 246.511 116.56 244.791 117.4C243.111 118.24 241.211 118.66 239.091 118.66ZM286.638 118.72C282.518 118.72 279.538 117.46 277.698 114.94C275.858 112.42 275.078 109.12 275.358 105.04L276.198 92.38H268.578V86.98H269.478C272.038 86.98 274.038 86.68 275.478 86.08C276.918 85.48 277.938 84.56 278.538 83.32C279.138 82.08 279.438 80.5 279.438 78.58V78.16H286.098V107.44C286.098 108.4 286.318 109.18 286.758 109.78C287.238 110.34 287.958 110.62 288.918 110.62C289.878 110.62 290.578 110.34 291.018 109.78C291.458 109.18 291.678 108.4 291.678 107.44V99.94H298.098V107.5C298.098 110.86 297.158 113.58 295.278 115.66C293.398 117.7 290.518 118.72 286.638 118.72ZM286.098 92.38V86.5H298.758V92.38H286.098ZM303.234 118V112.54H307.674V92.02H303.654V86.5H318.474V112.54H322.314V118H303.234ZM312.714 84.22C310.794 84.22 309.234 83.7 308.034 82.66C306.874 81.62 306.294 80.18 306.294 78.34C306.294 76.54 306.874 75.12 308.034 74.08C309.234 73 310.794 72.46 312.714 72.46C314.594 72.46 316.114 73 317.274 74.08C318.474 75.12 319.074 76.54 319.074 78.34C319.074 80.18 318.474 81.62 317.274 82.66C316.114 83.7 314.594 84.22 312.714 84.22ZM343.856 118.72C340.376 118.72 337.256 118.08 334.496 116.8C331.736 115.52 329.576 113.66 328.016 111.22C326.456 108.74 325.676 105.76 325.676 102.28C325.676 98.76 326.456 95.78 328.016 93.34C329.576 90.9 331.736 89.04 334.496 87.76C337.256 86.44 340.376 85.78 343.856 85.78C347.416 85.78 350.556 86.44 353.276 87.76C355.996 89.04 358.136 90.9 359.696 93.34C361.256 95.78 362.036 98.76 362.036 102.28C362.036 105.76 361.256 108.74 359.696 111.22C358.136 113.66 355.996 115.52 353.276 116.8C350.556 118.08 347.416 118.72 343.856 118.72ZM343.856 113.08C345.176 113.08 346.276 112.66 347.156 111.82C348.076 110.94 348.756 109.66 349.196 107.98C349.676 106.3 349.916 104.26 349.916 101.86C349.916 99.66 349.676 97.78 349.196 96.22C348.756 94.66 348.076 93.48 347.156 92.68C346.276 91.88 345.176 91.48 343.856 91.48C342.616 91.48 341.536 91.9 340.616 92.74C339.696 93.58 338.996 94.8 338.516 96.4C338.036 98 337.796 99.96 337.796 102.28C337.796 104.6 338.036 106.56 338.516 108.16C338.996 109.76 339.696 110.98 340.616 111.82C341.536 112.66 342.616 113.08 343.856 113.08ZM387.353 118V112.54H389.993V97.06C389.993 95.74 389.613 94.76 388.853 94.12C388.133 93.44 387.133 93.1 385.853 93.1C385.013 93.1 384.233 93.26 383.513 93.58C382.793 93.9 382.213 94.44 381.773 95.2C381.333 95.92 381.113 96.92 381.113 98.2L379.373 98.26C379.373 95.78 379.673 93.62 380.273 91.78C380.913 89.94 382.013 88.52 383.573 87.52C385.133 86.52 387.353 86.02 390.233 86.02C393.313 86.02 395.833 86.88 397.793 88.6C399.793 90.32 400.793 93.04 400.793 96.76V112.54H404.033V118H387.353ZM365.753 118V112.54H370.193V92.02H366.173V86.5H379.793V96.88L381.113 96.64V112.54H383.753V118H365.753Z" fill="#1EC6B1"/>
</svg>
